<svg width="275" height="65" viewBox="0 0 275 65" fill="none" xmlns="http://www.w3.org/2000/svg">
<path d="M98.2691 62.3706L98.2305 59.8709L98.2691 62.3706ZM273.922 18.4419C274.485 17.1811 273.919 15.7028 272.658 15.14L252.113 5.96822C250.852 5.40539 249.373 5.9712 248.811 7.23199C248.248 8.49279 248.814 9.97112 250.074 10.5339L268.337 18.6866L260.185 36.9495C259.622 38.2103 260.188 39.6887 261.448 40.2515C262.709 40.8143 264.187 40.2485 264.75 38.9877L273.922 18.4419ZM2.61395 2.16101C0.513582 3.5169 0.513653 3.51701 0.513728 3.51713C0.513758 3.51718 0.513837 3.5173 0.513897 3.51739C0.514018 3.51758 0.514153 3.51779 0.514302 3.51802C0.514601 3.51848 0.51496 3.51904 0.515377 3.51968C0.516212 3.52097 0.517282 3.52263 0.518588 3.52464C0.5212 3.52867 0.524755 3.53415 0.52925 3.54107C0.538239 3.55489 0.550988 3.57445 0.567476 3.59963C0.600451 3.64999 0.648383 3.72283 0.711105 3.81722C0.836544 4.006 1.02116 4.28105 1.2636 4.63498C1.74845 5.34279 2.4648 6.36644 3.40186 7.6469L5.41933 6.17047L7.4368 4.69405C6.53245 3.4583 5.84611 2.47722 5.38862 1.80935C5.1599 1.47544 4.98843 1.21991 4.87558 1.05007C4.81916 0.965158 4.7774 0.901677 4.75046 0.860543C4.737 0.839977 4.72724 0.824999 4.72121 0.815723C4.71819 0.811085 4.71611 0.807873 4.71496 0.806101C4.71439 0.805215 4.71405 0.804689 4.71394 0.804525C4.71389 0.804443 4.71389 0.804451 4.71396 0.80455C4.71399 0.8046 4.71403 0.804672 4.7141 0.804767C4.71413 0.804814 4.71418 0.804902 4.7142 0.804926C4.71426 0.80502 4.71432 0.80512 2.61395 2.16101ZM11.4402 13.8856L9.51416 15.4795C11.4127 17.7736 13.5945 20.2949 16.0422 22.9467L17.8792 21.2511L19.7163 19.5555C17.3352 16.9757 15.2126 14.5229 13.3662 12.2917L11.4402 13.8856ZM24.705 28.2499L22.9649 30.0449C25.2566 32.2667 27.707 34.5194 30.3072 36.7546L31.9369 34.8588L33.5666 32.9629C31.0478 30.7978 28.6711 28.6129 26.4452 26.455L24.705 28.2499ZM39.569 41.0005L38.068 42.9998C40.6795 44.9606 43.4096 46.8705 46.2516 48.6929L47.6011 46.5884L48.9505 44.4838C46.2197 42.7327 43.5906 40.8938 41.07 39.0013L39.569 41.0005ZM56.0481 51.5304L54.8785 53.74C57.8032 55.2881 60.8263 56.7241 63.9422 58.0151L64.8991 55.7055L65.8561 53.3959C62.8947 52.1689 60.0134 50.8008 57.2178 49.3209L56.0481 51.5304ZM74.1207 58.9786L73.4118 61.376C76.601 62.319 79.872 63.0957 83.2194 63.6762L83.6465 61.2129L84.0737 58.7497C80.926 58.2039 77.8431 57.4722 74.8296 56.5812L74.1207 58.9786ZM93.3725 62.2906L93.2525 64.7877C94.9221 64.868 96.6074 64.8966 98.3078 64.8703L98.2691 62.3706L98.2305 59.8709C96.6373 59.8955 95.0578 59.8687 93.4925 59.7935L93.3725 62.2906ZM98.2691 62.3706L98.3078 64.8703C99.9565 64.8448 101.647 64.7856 103.374 64.6947L103.243 62.1981L103.111 59.7016C101.441 59.7895 99.8125 59.8464 98.2305 59.8709L98.2691 62.3706ZM113.175 61.3799L113.446 63.8652C116.697 63.5111 120.045 63.0713 123.471 62.5564L123.1 60.0841L122.728 57.6119C119.361 58.118 116.08 58.5487 112.905 58.8946L113.175 61.3799ZM132.936 58.443L133.384 60.9025C136.632 60.3107 139.931 59.6641 143.265 58.9703L142.756 56.5227L142.247 54.0751C138.949 54.7612 135.691 55.3998 132.488 55.9835L132.936 58.443ZM152.501 54.3883L153.06 56.825C156.297 56.0822 159.554 55.3032 162.819 54.4945L162.218 52.0679L161.617 49.6412C158.378 50.4435 155.149 51.2158 151.942 51.9516L152.501 54.3883ZM171.897 49.5916L172.534 52.009C175.768 51.1565 178.997 50.2812 182.208 49.3896L181.539 46.9807L180.871 44.5719C177.679 45.458 174.471 46.3276 171.259 47.1742L171.897 49.5916ZM191.147 44.2517L191.844 46.6526C195.08 45.7135 198.284 44.764 201.443 43.8109L200.72 41.4175L199.998 39.024C196.855 39.9723 193.668 40.9168 190.45 41.8508L191.147 44.2517ZM210.281 38.482L211.026 40.8684C214.271 39.8549 217.45 38.8455 220.546 37.8481L219.779 35.4686L219.013 33.089C215.93 34.082 212.766 35.0869 209.536 36.0957L210.281 38.482ZM229.301 32.3561L230.088 34.7291C233.383 33.6369 236.548 32.5715 239.562 31.5451L238.756 29.1786L237.95 26.8121C234.948 27.8344 231.796 28.8954 228.515 29.9832L229.301 32.3561ZM248.172 25.929L248.997 28.2889C252.479 27.0715 255.652 25.9445 258.462 24.9352L257.617 22.5824L256.772 20.2295C253.974 21.2343 250.815 22.3566 247.347 23.5691L248.172 25.929ZM267.005 19.16L267.874 21.5043C269.374 20.9483 270.537 20.5124 271.326 20.2151C271.72 20.0664 272.021 19.9524 272.224 19.8754C272.325 19.8369 272.402 19.8077 272.454 19.7879C272.479 19.7781 272.499 19.7706 272.512 19.7656C272.519 19.763 272.524 19.7611 272.527 19.7598C272.529 19.7591 272.53 19.7586 272.531 19.7583C272.532 19.7581 272.532 19.758 272.532 19.7579C272.532 19.7578 272.533 19.7578 272.533 19.7577C272.533 19.7577 272.533 19.7577 272.533 19.7577C272.533 19.7577 272.533 19.7577 271.639 17.4228C270.746 15.088 270.746 15.088 270.746 15.088C270.746 15.088 270.746 15.088 270.746 15.088C270.746 15.088 270.746 15.088 270.745 15.0881C270.745 15.0881 270.745 15.0882 270.745 15.0883C270.744 15.0886 270.743 15.089 270.741 15.0896C270.738 15.0907 270.734 15.0925 270.728 15.0948C270.716 15.0995 270.697 15.1066 270.672 15.1161C270.622 15.1351 270.547 15.1636 270.448 15.2014C270.249 15.2769 269.952 15.3893 269.562 15.5364C268.782 15.8305 267.628 16.2632 266.136 16.8158L267.005 19.16Z" fill="#FA9A70"/>
</svg>
