<svg width="271" height="77" viewBox="0 0 271 77" fill="none" xmlns="http://www.w3.org/2000/svg">
<path d="M95.8532 2.66763L95.8146 5.16733L95.8532 2.66763ZM270.218 67.324C270.586 68.6548 269.805 70.0319 268.474 70.3999L246.788 76.3967C245.457 76.7647 244.08 75.9842 243.712 74.6535C243.344 73.3227 244.125 71.9456 245.456 71.5776L264.732 66.2471L259.402 46.9705C259.034 45.6398 259.814 44.2626 261.145 43.8946C262.476 43.5267 263.853 44.3071 264.221 45.6379L270.218 67.324ZM1.67688 28.3521C0.243649 26.3037 0.243793 26.3036 0.243942 26.3035C0.243999 26.3035 0.244154 26.3034 0.244269 26.3033C0.244498 26.3031 0.244748 26.3029 0.245021 26.3027C0.245567 26.3024 0.246201 26.3019 0.246923 26.3014C0.248367 26.3004 0.250162 26.2992 0.25231 26.2977C0.256605 26.2947 0.262307 26.2907 0.269411 26.2858C0.283619 26.2759 0.303437 26.2622 0.328827 26.2448C0.379608 26.2099 0.452686 26.1601 0.547778 26.096C0.737956 25.9679 1.01621 25.783 1.38027 25.5476C2.10835 25.0766 3.17985 24.4034 4.57659 23.5779L5.84864 25.73L7.12068 27.8822C5.78468 28.6719 4.7703 29.3096 4.09569 29.7459C3.7584 29.9641 3.50611 30.1319 3.34107 30.243C3.25856 30.2986 3.19786 30.34 3.15927 30.3665C3.13998 30.3798 3.12621 30.3893 3.118 30.395C3.1139 30.3978 3.11119 30.3997 3.10987 30.4006C3.10921 30.4011 3.1089 30.4013 3.10894 30.4013C3.10896 30.4013 3.10907 30.4012 3.10927 30.4011C3.10936 30.401 3.10948 30.4009 3.10962 30.4008C3.10969 30.4007 3.10982 30.4007 3.10985 30.4006C3.10998 30.4006 3.11011 30.4005 1.67688 28.3521ZM14.5598 21.0173L13.4458 18.7792C16.1146 17.4509 19.1608 16.0283 22.5583 14.5832L23.5368 16.8837L24.5153 19.1842C21.2147 20.5882 18.2589 21.9687 15.6737 23.2554L14.5598 21.0173ZM32.7486 13.2692L31.9008 10.9173C34.8948 9.83798 38.0763 8.78006 41.4343 7.77439L42.1516 10.1693L42.8688 12.5642C39.6025 13.5424 36.508 14.5714 33.5965 15.621L32.7486 13.2692ZM51.701 7.59205L51.116 5.16146C54.2701 4.40232 57.547 3.70251 60.9396 3.08157L61.3897 5.54072L61.8398 7.99987C58.5407 8.60368 55.3538 9.28427 52.286 10.0226L51.701 7.59205ZM71.1697 4.03001L70.8569 1.54964C74.0988 1.14095 77.4289 0.810974 80.8419 0.573982L81.0151 3.06798L81.1882 5.56197C77.871 5.79232 74.634 6.11305 71.4824 6.51038L71.1697 4.03001ZM90.9029 2.66121L90.8708 0.161415C92.5278 0.140106 94.2017 0.1418 95.8918 0.167923L95.8532 2.66763L95.8146 5.16733C94.1721 5.14194 92.5454 5.14029 90.9351 5.161L90.9029 2.66121ZM95.8532 2.66763L95.8918 0.167923C97.6082 0.19445 99.3661 0.274345 101.161 0.403923L100.981 2.89744L100.801 5.39095C99.0923 5.26759 97.429 5.19228 95.8146 5.16733L95.8532 2.66763ZM111.178 4.0942L111.568 1.62469C114.902 2.15036 118.333 2.80715 121.839 3.57823L121.302 6.01986L120.765 8.46149C117.345 7.70927 114.013 7.07192 110.789 6.5637L111.178 4.0942ZM131.295 8.46649L131.942 6.05165C135.228 6.93208 138.562 7.89426 141.929 8.92627L141.197 11.3165L140.464 13.7068C137.149 12.6905 133.871 11.745 130.648 10.8813L131.295 8.46649ZM150.984 14.4771L151.786 12.1091C155.031 13.2072 158.292 14.3585 161.559 15.5529L160.7 17.9009L159.841 20.2488C156.61 19.0672 153.386 17.9294 150.183 16.8451L150.984 14.4771ZM170.33 21.5385L171.237 19.2088C174.449 20.4594 177.654 21.7426 180.838 23.0487L179.889 25.3617L178.94 27.6747C175.782 26.3791 172.605 25.1072 169.423 23.8682L170.33 21.5385ZM189.377 29.344L190.363 27.0464C193.558 28.4168 196.719 29.8014 199.834 31.1903L198.815 33.4735L197.797 35.7568C194.703 34.377 191.564 33.002 188.392 31.6416L189.377 29.344ZM208.191 37.7293L209.239 35.4595C212.425 36.9304 215.544 38.3946 218.578 39.8402L217.503 42.0972L216.428 44.3542C213.41 42.9168 210.31 41.4611 207.144 39.9991L208.191 37.7293ZM226.786 46.584L227.886 44.3393C231.103 45.9167 234.192 47.4543 237.13 48.9347L236.006 51.1673L234.881 53.3999C231.958 51.9272 228.885 50.3977 225.685 48.8287L226.786 46.584ZM245.158 55.84L246.306 53.6195C249.68 55.3648 252.751 56.9792 255.47 58.424L254.296 60.6315L253.123 62.8391C250.42 61.4024 247.365 59.7966 244.009 58.0605L245.158 55.84ZM263.358 65.5207L264.56 63.3288C266.003 64.1203 267.121 64.7407 267.879 65.1638C268.258 65.3753 268.548 65.5376 268.743 65.6473C268.84 65.7021 268.914 65.7438 268.964 65.772C268.989 65.7861 269.008 65.7967 269.021 65.804C269.027 65.8076 269.032 65.8104 269.035 65.8123C269.037 65.8132 269.038 65.814 269.039 65.8145C269.04 65.8147 269.04 65.8149 269.04 65.8151C269.04 65.8152 269.04 65.8152 269.04 65.8153C269.041 65.8153 269.041 65.8153 269.041 65.8153C269.041 65.8154 269.041 65.8154 267.808 67.9904C266.575 70.1653 266.575 70.1653 266.575 70.1654C266.575 70.1654 266.575 70.1654 266.575 70.1654C266.575 70.1653 266.575 70.1653 266.575 70.1653C266.575 70.1652 266.575 70.1651 266.575 70.1649C266.574 70.1646 266.573 70.164 266.572 70.1632C266.569 70.1616 266.565 70.1592 266.559 70.1559C266.547 70.1493 266.529 70.1393 266.505 70.1259C266.458 70.099 266.386 70.0587 266.291 70.0052C266.101 69.8982 265.817 69.7387 265.443 69.5299C264.695 69.1124 263.587 68.498 262.156 67.7126L263.358 65.5207Z" fill="#FA9A70"/>
</svg>
