<svg width="193" height="66" viewBox="0 0 193 66" fill="none" xmlns="http://www.w3.org/2000/svg">
<path d="M1.14435 57.3478C0.775034 57.7585 0.808528 58.3907 1.21916 58.7601L7.91087 64.7785C8.3215 65.1478 8.95378 65.1143 9.3231 64.7037C9.69242 64.293 9.65892 63.6607 9.24829 63.2914L3.30011 57.9417L8.6498 51.9936C9.01912 51.5829 8.98562 50.9506 8.57499 50.5813C8.16435 50.212 7.53207 50.2455 7.16275 50.6561L1.14435 57.3478ZM112.272 13.5568L111.295 13.7713L112.272 13.5568ZM75.9167 7.20083L75.1453 6.56445L75.9167 7.20083ZM87.652 46.1128L87.1929 47.0012L87.652 46.1128ZM1.88788 58.0165C1.94078 59.0151 1.94079 59.0151 1.94081 59.0151C1.94082 59.0151 1.94084 59.0151 1.94085 59.0151C1.94089 59.0151 1.94094 59.0151 1.941 59.0151C1.94111 59.0151 1.94127 59.0151 1.94146 59.0151C1.94186 59.0151 1.94242 59.0151 1.94315 59.015C1.9446 59.0149 1.94671 59.0148 1.94949 59.0147C1.95503 59.0144 1.9632 59.0139 1.97398 59.0134C1.99554 59.0122 2.02752 59.0104 2.06972 59.008C2.1541 59.0033 2.27934 58.9962 2.44377 58.9864C2.77262 58.9669 3.25823 58.9369 3.88728 58.8952L3.8211 57.8974L3.75493 56.8996C3.13067 56.941 2.64966 56.9706 2.32523 56.9899C2.16301 56.9995 2.03994 57.0066 1.95767 57.0112C1.91654 57.0135 1.88561 57.0152 1.86509 57.0163C1.85483 57.0169 1.84718 57.0173 1.84215 57.0176C1.83963 57.0177 1.83778 57.0178 1.83658 57.0179C1.83598 57.0179 1.83555 57.0179 1.83528 57.0179C1.83515 57.0179 1.83506 57.0179 1.835 57.0179C1.83498 57.0179 1.83496 57.0179 1.83496 57.0179C1.83496 57.0179 1.83496 57.0179 1.83496 57.0179C1.83497 57.0179 1.83498 57.0179 1.88788 58.0165ZM7.84231 57.6044L7.92073 58.6013C9.11143 58.5077 10.459 58.3961 11.9441 58.2645L11.8558 57.2684L11.7676 56.2723C10.2894 56.4033 8.94838 56.5143 7.76389 56.6075L7.84231 57.6044ZM15.878 56.8933L15.9754 57.8885C17.2473 57.7641 18.5868 57.6275 19.9859 57.4781L19.8797 56.4837L19.7734 55.4894C18.3805 55.6382 17.0469 55.7741 15.7806 55.898L15.878 56.8933ZM23.8669 56.0399L23.982 57.0333C25.2753 56.8835 26.6073 56.7236 27.973 56.5529L27.849 55.5606L27.725 54.5684C26.3655 54.7382 25.0395 54.8975 23.7519 55.0466L23.8669 56.0399ZM31.8316 55.0443L31.9648 56.0354C33.2734 55.8595 34.6061 55.6742 35.9591 55.4789L35.8163 54.4892L35.6735 53.4994C34.3272 53.6937 33.0008 53.8782 31.6984 54.0532L31.8316 55.0443ZM39.8013 53.8937L39.9542 54.8819C41.2677 54.6787 42.5959 54.4663 43.9354 54.2444L43.7719 53.2578L43.6085 52.2713C42.2763 52.492 40.9552 52.7033 39.6484 52.9054L39.8013 53.8937ZM47.725 52.5798L47.8998 53.5644C49.2153 53.331 50.5385 53.0883 51.8661 52.8359L51.6793 51.8535L51.4926 50.8711C50.1733 51.1219 48.8582 51.3631 47.5503 51.5952L47.725 52.5798ZM55.6264 51.0765L55.8261 52.0563C57.1406 51.7884 58.4566 51.5108 59.771 51.2232L59.5573 50.2463L59.3435 49.2694C58.0388 49.5549 56.7323 49.8305 55.4267 50.0966L55.6264 51.0765ZM63.4778 49.3567L63.7068 50.3302C65.0198 50.0212 66.3283 49.7019 67.6295 49.3719L67.3837 48.4026L67.1378 47.4333C65.8483 47.7603 64.551 48.0769 63.2488 48.3833L63.4778 49.3567ZM71.2647 47.3791L71.5291 48.3435C72.8365 47.985 74.1332 47.6151 75.4161 47.2333L75.1309 46.2748L74.8457 45.3164C73.5773 45.6938 72.2944 46.0598 71.0002 46.4147L71.2647 47.3791ZM78.9755 45.0802L79.2842 46.0314C80.581 45.6105 81.8597 45.1766 83.1168 44.729L82.7814 43.7869L82.4461 42.8449C81.2077 43.2857 79.9468 43.7137 78.6668 44.1291L78.9755 45.0802ZM86.5375 42.382L86.9035 43.3126C88.1782 42.8112 89.4253 42.2942 90.6405 41.7611L90.2388 40.8454L89.837 39.9296C88.6471 40.4516 87.4239 40.9588 86.1715 41.4514L86.5375 42.382ZM93.8922 39.1429L94.3364 40.0388C95.5827 39.421 96.7867 38.783 97.9429 38.1242L97.4479 37.2554L96.9528 36.3865C95.8328 37.0246 94.6629 37.6447 93.448 38.247L93.8922 39.1429ZM100.87 35.1445L101.427 35.9752C102.598 35.1904 103.704 34.3779 104.736 33.5364L104.104 32.7614L103.472 31.9863C102.493 32.7844 101.438 33.5601 100.314 34.3138L100.87 35.1445ZM107.059 30.0475L107.782 30.7387C108.771 29.7044 109.654 28.6286 110.418 27.5094L109.592 26.9459L108.766 26.3823C108.07 27.4013 107.258 28.3925 106.336 29.3564L107.059 30.0475ZM111.497 23.4283L112.424 23.8053C112.96 22.4876 113.335 21.12 113.533 19.7025L112.543 19.5642L111.552 19.426C111.378 20.6732 111.048 21.8807 110.571 23.0514L111.497 23.4283ZM112.601 15.5734L113.596 15.4683C113.522 14.7683 113.406 14.0597 113.249 13.3424L112.272 13.5568L111.295 13.7713C111.438 14.4186 111.541 15.0542 111.607 15.6784L112.601 15.5734ZM112.272 13.5568L113.249 13.3424C113.079 12.5689 112.848 11.832 112.562 11.1315L111.636 11.5101L110.711 11.8888C110.953 12.482 111.15 13.109 111.295 13.7713L112.272 13.5568ZM109.361 7.91145L110.103 7.24146C109.09 6.11934 107.9 5.15972 106.588 4.35048L106.063 5.20159L105.538 6.05269C106.71 6.77515 107.748 7.61702 108.618 8.58144L109.361 7.91145ZM102.201 3.3714L102.537 2.42962C101.163 1.93895 99.7212 1.56137 98.2483 1.28898L98.0664 2.27231L97.8846 3.25564C99.2631 3.51057 100.601 3.86185 101.865 4.31318L102.201 3.3714ZM93.815 1.78254L93.8644 0.783757C92.3874 0.71081 90.9085 0.731975 89.4605 0.841595L89.536 1.83874L89.6115 2.83589C90.9773 2.73249 92.3728 2.71253 93.7657 2.78132L93.815 1.78254ZM85.2995 2.43985L85.0914 1.46175C83.5808 1.78313 82.1433 2.20977 80.8268 2.73691L81.1985 3.66526L81.5702 4.5936C82.7681 4.11395 84.0947 3.71857 85.5076 3.41796L85.2995 2.43985ZM77.4624 5.72827L76.8529 4.93551C76.2084 5.43103 75.6326 5.97384 75.1453 6.56445L75.9167 7.20083L76.688 7.83722C77.0665 7.37847 77.5294 6.93817 78.0719 6.52104L77.4624 5.72827ZM75.9167 7.20083L75.1453 6.56445C74.7172 7.08331 74.3075 7.63339 73.919 8.21129L74.7489 8.7692L75.5788 9.32711C75.932 8.80171 76.3028 8.30415 76.688 7.83722L75.9167 7.20083ZM72.8637 12.1977L71.9494 11.7926C71.4111 13.0075 70.9581 14.2958 70.6082 15.639L71.5759 15.8911L72.5435 16.1432C72.8661 14.9053 73.2833 13.7192 73.7779 12.6027L72.8637 12.1977ZM70.8957 19.7438L69.9002 19.6496C69.7744 20.98 69.7522 22.3435 69.8484 23.7249L70.8459 23.6555L71.8435 23.586C71.7552 22.3168 71.7755 21.0628 71.8913 19.8379L70.8957 19.7438ZM71.4419 27.522L70.4698 27.7565C70.7816 29.0491 71.2059 30.3436 71.7539 31.628L72.6737 31.2355L73.5935 30.8431C73.0897 29.6624 72.7001 28.4737 72.414 27.2875L71.4419 27.522ZM74.4921 34.6953L73.6464 35.2289C74.3461 36.338 75.1499 37.4288 76.0647 38.4934L76.8232 37.8417L77.5816 37.19C76.7297 36.1985 75.9844 35.1865 75.3379 34.1617L74.4921 34.6953ZM79.565 40.6326L78.8978 41.3775C79.8606 42.2399 80.9087 43.0773 82.0464 43.8849L82.6253 43.0695L83.2041 42.254C82.1258 41.4886 81.1369 40.6981 80.2323 39.8878L79.565 40.6326ZM85.9284 45.1749L85.4313 46.0427C86.0006 46.3688 86.5877 46.6884 87.1929 47.0012L87.652 46.1128L88.1112 45.2245C87.531 44.9246 86.9693 44.6187 86.4254 44.3072L85.9284 45.1749ZM87.652 46.1128L87.1929 47.0012C87.7945 47.3121 88.3982 47.6122 89.0039 47.9018L89.4352 46.9995L89.8664 46.0973C89.2794 45.8167 88.6943 45.5258 88.1112 45.2245L87.652 46.1128ZM93.0538 48.5939L92.6789 49.521C93.9282 50.0261 95.1842 50.4891 96.4456 50.9117L96.7633 49.9635L97.081 49.0154C95.8576 48.6054 94.6397 48.1565 93.4286 47.6669L93.0538 48.5939ZM100.553 51.1084L100.292 52.0738C101.591 52.4245 102.895 52.7353 104.201 53.008L104.405 52.0291L104.609 51.0502C103.34 50.7852 102.075 50.4834 100.814 50.1429L100.553 51.1084ZM108.302 52.7298L108.152 53.7185C109.478 53.9194 110.806 54.0835 112.133 54.213L112.23 53.2177L112.327 52.2224C111.034 52.0963 109.742 51.9365 108.451 51.741L108.302 52.7298ZM116.178 53.5019L116.131 54.5008C117.468 54.5635 118.804 54.5933 120.136 54.5922L120.135 53.5922L120.135 52.5922C118.833 52.5932 117.529 52.5642 116.225 52.503L116.178 53.5019ZM124.093 53.4994L124.138 54.4983C125.474 54.4372 126.805 54.3471 128.129 54.2302L128.042 53.2341L127.954 52.238C126.656 52.3525 125.353 52.4407 124.047 52.5004L124.093 53.4994ZM131.978 52.8069L132.106 53.7988C133.432 53.6283 134.751 53.4328 136.061 53.2145L135.896 52.2281L135.732 51.2417C134.446 51.4561 133.152 51.6479 131.851 51.8151L131.978 52.8069ZM139.791 51.5076L139.99 52.4876C141.302 52.2211 142.602 51.9336 143.89 51.6273L143.659 50.6544L143.427 49.6816C142.16 49.9829 140.881 50.2657 139.592 50.5276L139.791 51.5076ZM147.497 49.6773L147.758 50.6425C149.053 50.2916 150.332 49.9235 151.594 49.541L151.303 48.584L151.013 47.627C149.77 48.004 148.51 48.3666 147.235 48.7122L147.497 49.6773ZM155.077 47.3816L155.394 48.3301C156.67 47.9039 157.925 47.4649 159.158 47.0161L158.816 46.0764L158.474 45.1367C157.257 45.5796 156.019 46.0127 154.76 46.4331L155.077 47.3816ZM162.52 44.6739L162.886 45.6046C164.145 45.1096 165.376 44.607 166.577 44.1004L166.189 43.179L165.8 42.2577C164.613 42.7581 163.397 43.2545 162.154 43.7433L162.52 44.6739ZM169.82 41.5961L170.23 42.508C171.475 41.9481 172.68 41.3878 173.843 40.8318L173.411 39.9296L172.98 39.0274C171.83 39.577 170.639 40.1309 169.41 40.6842L169.82 41.5961ZM176.956 38.185L177.407 39.0772C178.649 38.4485 179.829 37.8323 180.943 37.2358L180.471 36.3543L179.999 35.4727C178.898 36.0622 177.731 36.6714 176.504 37.2929L176.956 38.185ZM183.95 34.4389L184.442 35.3092C185.724 34.5836 186.877 33.9081 187.891 33.3001L187.376 32.4426L186.862 31.5851C185.862 32.1849 184.723 32.8519 183.457 33.5687L183.95 34.4389ZM190.728 30.3641L191.269 31.2052C191.807 30.8588 192.221 30.5859 192.5 30.3987C192.64 30.3051 192.747 30.233 192.819 30.1839C192.855 30.1594 192.882 30.1406 192.901 30.1278C192.911 30.1213 192.918 30.1164 192.923 30.113C192.925 30.1113 192.927 30.1099 192.928 30.109C192.929 30.1085 192.93 30.1081 192.93 30.1078C192.93 30.1077 192.93 30.1076 192.931 30.1075C192.931 30.1074 192.931 30.1074 192.931 30.1074C192.931 30.1073 192.931 30.1073 192.931 30.1073C192.931 30.1073 192.931 30.1073 192.361 29.2853C191.792 28.4633 191.792 28.4633 191.792 28.4633C191.792 28.4633 191.792 28.4632 191.792 28.4632C191.792 28.4632 191.792 28.4632 191.792 28.4632C191.792 28.4632 191.792 28.4632 191.792 28.4633C191.792 28.4634 191.791 28.4636 191.791 28.4639C191.79 28.4644 191.789 28.4654 191.787 28.4667C191.783 28.4694 191.777 28.4736 191.769 28.4792C191.752 28.4906 191.727 28.5078 191.693 28.5308C191.626 28.5768 191.524 28.6458 191.389 28.7362C191.118 28.917 190.715 29.1834 190.187 29.523L190.728 30.3641Z" fill="black"/>
</svg>
