<svg width="38" height="36" viewBox="0 0 38 36" fill="none" xmlns="http://www.w3.org/2000/svg">
<path d="M16.536 0.292699C16.5755 0.266387 16.7926 0.200605 17.0294 0.141402C17.3649 0.0558867 17.7333 0.0361523 18.7726 0.0427304C20.029 0.0558867 20.1211 0.0690429 20.746 0.25323C21.1078 0.365059 21.5683 0.53609 21.7657 0.634762C21.963 0.733434 22.3314 0.950512 22.5879 1.12154C22.8379 1.286 23.272 1.64779 23.5549 1.9175C23.8378 2.1872 24.1206 2.48979 24.1798 2.58189C24.2456 2.67398 24.443 2.97 24.6206 3.2397C24.7982 3.5094 24.9626 3.78569 24.9889 3.85804C25.0152 3.9304 25.1205 4.16064 25.2126 4.36456C25.3047 4.57506 25.3836 4.78556 25.3836 4.82503C25.3836 4.87108 25.4428 5.08815 25.5086 5.30523C25.5744 5.52231 25.6533 5.89069 25.6862 6.1275C25.7191 6.36431 25.7454 7.21289 25.7454 8.01542C25.7454 8.82453 25.752 9.48234 25.7652 9.48234C25.7717 9.48234 25.9625 9.39683 26.1927 9.29158C26.4164 9.19291 26.7321 9.04819 26.8966 8.98241C27.0545 8.91005 27.2058 8.85742 27.2255 8.85084C27.2452 8.85084 27.3768 8.79822 27.5215 8.73244C27.6662 8.66666 27.903 8.57456 28.0478 8.52194C28.1925 8.46931 28.6398 8.35091 29.0345 8.25881C29.5805 8.1404 29.9488 8.10094 30.5146 8.10094C31.1395 8.10094 31.3697 8.13383 31.8302 8.27197L31.8302 8.27198C32.1394 8.36407 32.4485 8.45616 32.5209 8.46931C32.5933 8.48247 32.9879 8.66008 33.3958 8.85742C33.797 9.05476 34.2115 9.285 34.3101 9.36394C34.4022 9.44945 34.6917 9.69942 34.9482 9.9165C35.2048 10.1402 35.5074 10.423 35.6126 10.5414C35.7244 10.6664 35.9481 10.9558 36.1125 11.1927C36.277 11.4295 36.5007 11.811 36.6125 12.0478C36.7243 12.2846 36.9085 12.7714 37.0203 13.1332C37.1322 13.495 37.2637 14.0607 37.3098 14.383C37.3492 14.7054 37.3821 15.225 37.3755 15.5342C37.3624 15.8434 37.3295 16.2249 37.29 16.3894C37.2571 16.5538 37.2177 16.7906 37.1979 16.9156C37.1782 17.0406 37.1519 17.1919 37.1387 17.2445C37.1256 17.2972 37.0795 17.4616 37.0335 17.6063C36.9874 17.751 36.9282 17.9287 36.9019 18.001C36.8756 18.0734 36.7506 18.3365 36.6322 18.5931C36.5072 18.8496 36.2967 19.218 36.1652 19.4153C36.0336 19.6127 35.6521 20.0402 35.3232 20.3691C34.9877 20.6981 34.6719 20.9809 34.6062 21.0006C34.547 21.027 34.422 21.1256 34.3299 21.2177C34.2378 21.3164 34.1325 21.3953 34.0996 21.3888C34.0667 21.3888 33.7839 21.5137 33.4747 21.6585C33.1655 21.8098 32.7709 21.9808 32.5867 22.0466C32.4091 22.1123 32.067 22.211 31.8302 22.2702C31.5934 22.3228 31.2974 22.3821 31.1724 22.4018C31.0474 22.4149 30.7974 22.4544 30.6132 22.4807C30.4356 22.5136 30.2646 22.5268 30.2383 22.5202C30.2054 22.5136 30.1857 22.5268 30.1857 22.5531C30.1857 22.586 30.3238 22.711 30.4948 22.8425C30.6724 22.9741 31.0013 23.2898 31.2382 23.5332C31.475 23.7832 31.7578 24.1318 31.8631 24.316C31.9683 24.4936 32.0736 24.6581 32.0999 24.6778C32.1196 24.6976 32.2643 24.9409 32.4156 25.2172C32.5604 25.5001 32.6656 25.7303 32.6393 25.7303C32.6064 25.7303 32.6196 25.7566 32.6525 25.7829C32.6853 25.8093 32.784 26.0329 32.863 26.2895C32.9485 26.546 33.0735 27.092 33.1524 27.5064C33.2642 28.1116 33.2905 28.3945 33.2576 28.9207C33.2313 29.2825 33.1524 29.868 33.08 30.2166C33.0077 30.5718 32.9156 30.9402 32.8761 31.0389C32.8366 31.1441 32.7774 31.2823 32.7511 31.3546C32.7248 31.427 32.5933 31.723 32.4485 32.0124C32.3104 32.3019 32.1788 32.5518 32.1591 32.5716C32.1394 32.5913 31.9486 32.8544 31.7315 33.157C31.5144 33.4596 31.1329 33.8872 30.8764 34.1109C30.6198 34.3411 30.2383 34.6371 30.0212 34.7818C29.8041 34.9265 29.4029 35.1502 29.1332 35.2818C28.8635 35.4133 28.2714 35.6304 26.9953 36.0054L25.7454 35.9725C24.6206 35.9461 24.4429 35.9264 23.9364 35.7685C23.6273 35.6699 23.2852 35.5515 23.1799 35.5054C23.0747 35.4528 22.851 35.3607 22.6866 35.2949C22.5221 35.2291 22.1998 35.0449 21.963 34.8936C21.7262 34.7424 21.4631 34.5647 21.371 34.499C21.2789 34.4332 21.0092 34.2293 20.7658 34.0385C20.5158 33.8477 20.3185 33.657 20.3185 33.6241C20.3185 33.5912 20.1935 33.4201 20.0356 33.2425C19.8777 33.0715 19.608 32.7097 19.4304 32.44C19.2528 32.1703 19.0226 31.7756 18.7397 31.1902L18.3713 31.7625C18.174 32.0848 17.9174 32.4729 17.799 32.6374C17.6872 32.8018 17.4307 33.1373 17.2267 33.3938C17.0228 33.6504 16.6281 34.0385 16.3519 34.2621C16.0756 34.4924 15.819 34.6766 15.7796 34.6766C15.7401 34.6766 15.7072 34.6963 15.7006 34.7226C15.6875 34.7555 15.5625 34.8542 15.4178 34.9529C15.273 35.0515 14.977 35.2094 14.7599 35.3015C14.5429 35.4002 14.2732 35.5186 14.1679 35.5646C14.0627 35.6041 13.7667 35.6962 13.5101 35.762C13.2536 35.8277 12.9312 35.9001 12.7865 35.933C12.6418 35.9593 12.0958 35.9856 11.5696 35.9856C10.8591 35.9922 10.4907 35.9593 10.1224 35.8672C9.85266 35.8014 9.5106 35.7159 9.36588 35.6699C9.22116 35.6238 8.8791 35.4988 8.6094 35.3804C8.33969 35.2686 8.01079 35.1107 7.8858 35.0252C7.76082 34.9463 7.47796 34.7555 7.26088 34.6042C7.0438 34.4529 6.72805 34.2029 6.5636 34.0582C6.39257 33.9069 6.09655 33.5978 5.90579 33.3609C5.70844 33.1241 5.49137 32.8413 5.41243 32.736C5.33349 32.6242 5.15588 32.315 5.01774 32.0453C4.8796 31.7756 4.76119 31.5191 4.75462 31.4862C4.74146 31.4533 4.67568 31.2559 4.59674 31.0586C4.5178 30.8613 4.42571 30.5916 4.38624 30.4666C4.35335 30.3416 4.3073 30.1442 4.28757 30.039C4.26783 29.9337 4.24152 29.3549 4.22836 28.7563C4.22179 28.1576 4.23494 27.5327 4.26783 27.3551C4.3073 27.1841 4.35993 26.921 4.39282 26.7697C4.42571 26.6118 4.50465 26.3421 4.56385 26.1579C4.62305 25.9803 4.71515 25.7369 4.77435 25.6316C4.82697 25.5264 4.99143 25.2106 5.13615 24.9409C5.28087 24.6712 5.49137 24.316 5.60319 24.1516C5.7216 23.9937 6.08998 23.5924 6.41888 23.2635C6.75437 22.9412 7.03065 22.6386 7.03065 22.6057C7.03065 22.5728 6.85962 22.5136 6.65569 22.4873C6.44519 22.461 6.10971 22.3952 5.91237 22.3426C5.71502 22.29 5.47821 22.2373 5.38612 22.2176C5.29402 22.2044 5.22166 22.1847 5.22166 22.1781C5.22166 22.1716 5.1493 22.1518 5.05721 22.1387C4.96512 22.1189 4.59674 21.9742 4.23494 21.8098C3.87315 21.6387 3.39952 21.3822 3.18244 21.2375C2.96536 21.0862 2.49832 20.6849 2.13652 20.3363C1.7813 19.9942 1.38004 19.5469 1.2419 19.3495C1.11033 19.1522 0.886676 18.7641 0.748536 18.4944C0.610395 18.2247 0.432786 17.7642 0.34727 17.4748C0.268332 17.1853 0.16966 16.7709 0.130192 16.5538C0.0907229 16.3368 0.0380979 15.8894 0.0117854 15.5671C-0.0145271 15.2053 0.00520727 14.7712 0.0512542 14.4488C0.0973011 14.1594 0.163082 13.791 0.202551 13.6266C0.24202 13.4621 0.334114 13.1529 0.406473 12.9359C0.478832 12.7188 0.630129 12.3504 0.748536 12.1136C0.860364 11.8768 1.06429 11.5216 1.18927 11.3242C1.32083 11.1269 1.5708 10.798 1.74841 10.594C1.91944 10.3967 2.20888 10.1007 2.39307 9.93623C2.57068 9.77178 2.87985 9.52839 3.06404 9.39683C3.2548 9.26526 3.42583 9.15344 3.44557 9.15344C3.4653 9.15344 3.6166 9.06792 3.78763 8.95609C3.96524 8.85084 4.32704 8.67323 4.59674 8.56798C4.86644 8.46273 5.36638 8.31144 5.69529 8.23908C6.10313 8.14698 6.54387 8.10094 6.99776 8.10094C7.49112 8.10094 7.90554 8.14698 8.4581 8.26539C8.88568 8.35748 9.28037 8.443 9.33299 8.45615C9.38562 8.46931 9.52376 8.52194 9.62901 8.57456C9.73426 8.63376 9.94476 8.7127 10.0895 8.75875C10.2342 8.8048 10.5763 8.94294 10.846 9.06792C11.1157 9.18633 11.4183 9.33105 11.5169 9.38367C11.6222 9.4363 11.7274 9.48234 11.7669 9.48234C11.8064 9.48234 11.8195 9.46261 11.8064 9.42972C11.7866 9.40341 11.7603 9.25211 11.7406 9.08766C11.7209 8.9232 11.6682 8.54167 11.6288 8.2325C11.5827 7.92333 11.5696 7.49575 11.5893 7.27867C11.6156 7.06159 11.6616 6.66033 11.6945 6.39062C11.7274 6.12092 11.8064 5.67361 11.8721 5.4039C11.9314 5.1342 12.0366 4.77898 12.109 4.61453C12.1813 4.45008 12.2668 4.26589 12.2997 4.20011C12.3326 4.1409 12.3589 4.06197 12.3589 4.0225C12.3589 3.98303 12.4708 3.77253 12.6023 3.54887C12.7405 3.31864 12.9641 2.97 13.1023 2.77265C13.247 2.57531 13.4969 2.26614 13.668 2.09511C13.8324 1.9175 14.2074 1.58859 14.4968 1.36493C14.7863 1.1347 15.2928 0.825528 15.6151 0.667652C15.9374 0.516356 16.2663 0.378215 16.3387 0.358481C16.4111 0.345324 16.4966 0.312434 16.536 0.292699Z" fill="#E58834"/>
<path d="M17.0294 13.37C17.1544 13.3305 17.4833 13.2582 17.753 13.2055C18.0293 13.1595 18.5226 13.1266 18.8713 13.1398C19.2133 13.1529 19.6475 13.2121 19.8251 13.2647C20.0093 13.324 20.2527 13.3832 20.3711 13.4029C20.4829 13.416 20.8118 13.5345 21.0947 13.666C21.371 13.7976 21.6933 13.9752 21.8117 14.0607C21.9235 14.1462 22.0354 14.2186 22.0551 14.2186C22.0748 14.2186 22.3708 14.4949 22.7063 14.8238C23.0418 15.1592 23.4233 15.6 23.5483 15.7973C23.6799 15.9947 23.8443 16.2644 23.9167 16.3894C23.9891 16.5143 24.1075 16.8104 24.1798 17.0472C24.2588 17.284 24.3706 17.6984 24.4364 17.9681C24.5482 18.4352 24.5482 18.5141 24.4429 19.3824C24.3837 19.8889 24.3245 20.3625 24.3114 20.4349C24.2982 20.5073 24.2324 20.7441 24.1667 20.9612C24.1075 21.1782 24.0154 21.415 23.9693 21.4874C23.9233 21.5598 23.8641 21.6913 23.8378 21.7834C23.8114 21.8755 23.693 22.0663 23.5878 22.211C23.476 22.3557 23.3247 22.5465 23.2457 22.632C23.1734 22.7175 22.9694 22.928 22.7853 23.099C22.6076 23.2767 22.3051 23.5266 22.1274 23.6713C21.9433 23.8095 21.7393 23.9542 21.667 24.0003C21.5946 24.0463 21.371 24.1581 21.1736 24.2568C20.9763 24.3489 20.6934 24.4673 20.5487 24.5265C20.404 24.5791 20.0816 24.6712 19.8251 24.7436C19.5686 24.8094 19.2199 24.8686 19.0357 24.8751C18.8581 24.8817 18.6345 24.8883 18.5424 24.8883C18.4503 24.8883 18.1871 24.8751 17.9503 24.8554C17.7135 24.8357 17.2728 24.7304 16.9636 24.6186C16.6544 24.5133 16.2269 24.3292 16.0098 24.2173C15.7927 24.1055 15.523 23.9279 15.4178 23.8292C15.3125 23.7305 15.1349 23.6056 15.0362 23.5595C14.931 23.5069 14.7073 23.3095 14.5429 23.1254C14.3718 22.9412 14.1745 22.7241 14.1021 22.632C14.0298 22.5465 13.8785 22.3426 13.7666 22.1781C13.6548 22.0137 13.4706 21.6913 13.3588 21.4545C13.247 21.2177 13.1286 20.9217 13.0891 20.7967C13.0562 20.6717 12.9641 20.2836 12.8918 19.9415C12.7997 19.5074 12.7668 19.1653 12.7865 18.8233C12.8062 18.5536 12.872 18.1063 12.9312 17.8365C12.9904 17.5668 13.0496 17.3235 13.0628 17.2906C13.0759 17.2642 13.0825 17.2379 13.0891 17.2248C13.0891 17.2182 13.1023 17.1656 13.1154 17.113C13.1286 17.0603 13.2207 16.8038 13.3259 16.5472C13.4246 16.2907 13.5825 15.9881 13.6746 15.8697C13.7666 15.7513 13.9837 15.4882 14.1679 15.2842C14.3521 15.0803 14.556 14.8567 14.635 14.7777C14.7073 14.7054 14.8389 14.587 14.931 14.5212C15.0165 14.4488 15.2796 14.2646 15.5164 14.1199C15.7532 13.9686 16.1348 13.7515 16.3716 13.6463C16.6084 13.5345 16.9044 13.4095 17.0294 13.37Z" fill="#A15923"/>
</svg>
