<svg width="27" height="33" viewBox="0 0 27 33" fill="none" xmlns="http://www.w3.org/2000/svg">
<path d="M5.5653 12.1797C6.7535 12.1797 8.34806 12.1489 9.11448 12.1232C9.90661 12.0923 12.3499 12.0769 14.7983 12.0872C17.2159 12.1026 19.3968 12.1335 19.7877 12.1643C20.2147 12.2003 20.8679 12.2055 21.4852 12.1849C22.0356 12.1643 22.766 12.1489 23.1055 12.154C23.4449 12.1592 23.8822 12.1952 24.0828 12.2312C24.2834 12.2723 24.6023 12.3855 24.8029 12.4832C25.0035 12.581 25.3224 12.797 25.5179 12.9667C25.7339 13.1468 25.9962 13.4348 26.1763 13.7023C26.3409 13.944 26.4643 14.1498 26.4489 14.1652C26.4335 14.1807 26.4437 14.2115 26.4695 14.2424C26.4952 14.2732 26.5672 14.4533 26.6289 14.6539C26.7266 14.9677 26.7472 15.2043 26.7935 16.5313C26.8192 17.3904 26.8295 19.5559 26.8141 21.5208C26.7987 23.4291 26.7781 25.8724 26.7781 26.9474C26.7729 28.0225 26.7524 29.0512 26.7318 29.2364C26.7112 29.4216 26.6186 29.7559 26.526 29.9822C26.4335 30.2086 26.2946 30.4966 26.2071 30.6252C26.1197 30.7538 25.8625 31.0418 25.6259 31.2682C25.3533 31.5356 25.0652 31.7517 24.8235 31.8803C24.6126 31.9883 24.2834 32.1272 24.0828 32.1838C23.7536 32.2712 23.5118 32.2866 21.408 32.3021C20.1375 32.3175 18.6767 32.3226 18.1675 32.3226C17.6582 32.3226 14.1965 32.3123 10.4776 32.3021C3.93988 32.2866 3.69812 32.2815 3.32777 32.1838C3.11688 32.1272 2.83912 32.0294 2.71052 31.9626C2.58193 31.9008 2.37618 31.7671 2.24759 31.6642C2.11899 31.5665 1.88238 31.3556 1.71778 31.1962C1.55318 31.0367 1.34229 30.8052 1.25484 30.6766C1.1674 30.548 1.01823 30.296 0.930788 30.1108C0.843344 29.9256 0.750757 29.6942 0.730182 29.5964C0.714751 29.4987 0.689032 29.3135 0.678745 29.1849C0.668457 29.0564 0.647882 28.4905 0.627307 27.9247C0.606732 27.3589 0.591301 25.5483 0.586157 23.8972C0.581014 22.2512 0.586157 20.9035 0.601589 20.9035C0.61702 20.9035 0.622164 20.8264 0.61702 20.7338C0.611876 20.6463 0.606732 19.9108 0.601589 19.1032C0.601589 18.2957 0.611876 17.092 0.622164 16.4285C0.637595 15.7649 0.65817 15.1374 0.673601 15.0397C0.683888 14.9419 0.766188 14.6745 0.858776 14.4481C0.946219 14.2218 1.10568 13.9183 1.20855 13.7692C1.31142 13.6251 1.50689 13.3937 1.63548 13.2548C1.76407 13.1211 1.96982 12.9256 2.09327 12.8279C2.21158 12.7301 2.43276 12.581 2.57678 12.4987C2.72081 12.4164 2.96771 12.3135 3.12202 12.2672C3.35863 12.2003 3.74441 12.1849 5.5653 12.1797Z" fill="#E99A2F"/>
<path d="M11.6606 0.189626C11.8149 0.143332 12.1287 0.0867507 12.355 0.0661757C12.5813 0.0456008 13.3477 0.0353133 14.0524 0.0456008C15.3229 0.0558883 15.3486 0.061032 15.9299 0.220488C16.2539 0.313075 16.6397 0.431381 16.7786 0.482819C16.9226 0.5394 17.1541 0.6217 17.293 0.667993C17.437 0.714287 17.7251 0.837737 17.936 0.945755C18.1468 1.05377 18.5532 1.29553 18.8361 1.48585C19.119 1.67617 19.3608 1.85105 19.3762 1.86648C19.3916 1.88706 19.4739 1.95391 19.5562 2.02077L19.5562 2.0208C19.6385 2.08252 19.9163 2.33971 20.1735 2.58146C20.4307 2.82836 20.7496 3.16785 20.8936 3.33759C21.0325 3.50734 21.2948 3.8674 21.4748 4.13487C21.6549 4.40235 21.8915 4.81899 22.0098 5.06075C22.123 5.3025 22.2207 5.53397 22.231 5.57512C22.2413 5.61627 22.2978 5.76544 22.3647 5.90946C22.4264 6.04835 22.4984 6.24895 22.519 6.34668C22.5345 6.44441 22.6116 6.75818 22.6836 7.04109C22.7711 7.39086 22.8328 7.82808 22.8688 8.40418C22.8997 8.87226 22.9305 9.56666 22.9408 9.9473C22.946 10.3279 22.946 10.976 22.9254 12.1334L22.2721 12.1591C21.9069 12.1745 21.1611 12.1848 20.6004 12.1848C20.0449 12.1848 19.5768 12.1745 19.5614 12.1591C19.5408 12.1437 19.5254 11.3361 19.5305 10.3588C19.5305 8.76424 19.5202 8.53277 19.4276 8.09555C19.3659 7.82808 19.3093 7.56061 19.299 7.50402C19.2836 7.44744 19.2476 7.31885 19.2167 7.22112C19.1807 7.12339 19.1396 7.02051 19.1139 6.98965C19.0933 6.95879 19.0367 6.83534 18.9904 6.70674C18.9441 6.57815 18.7641 6.2541 18.5841 5.98662C18.3732 5.678 18.0697 5.31793 17.7456 5.00931C17.437 4.71612 17.0718 4.42292 16.8249 4.2789C16.6037 4.15031 16.1974 3.9497 15.9299 3.83654C15.6624 3.72338 15.2663 3.59478 15.0555 3.54334C14.8343 3.49191 14.3662 3.44047 13.9496 3.43018C13.5329 3.41475 13.1111 3.42504 12.9465 3.46104C12.7922 3.48676 12.607 3.52791 12.535 3.54334C12.463 3.55878 12.3241 3.58449 12.2264 3.59993C12.1287 3.6205 11.8715 3.7028 11.6606 3.7851C11.4497 3.87254 11.1462 4.00628 10.9919 4.08344C10.8376 4.15545 10.6267 4.27376 10.529 4.34577C10.4312 4.41264 10.2101 4.57724 10.0403 4.71097C9.87057 4.83957 9.58766 5.09675 9.41277 5.27678C9.24303 5.45167 8.97555 5.7963 8.82124 6.03806C8.66693 6.27981 8.50233 6.57815 8.45089 6.70674C8.39946 6.83534 8.33773 6.95879 8.31716 6.98965C8.29144 7.02051 8.19885 7.31885 7.94166 8.27559L7.93652 10.1891C7.93138 11.2384 7.9108 12.118 7.89023 12.1437C7.86451 12.1643 7.42729 12.1951 6.91292 12.2054C6.39854 12.2157 5.6527 12.2054 4.53651 12.1488L4.5005 11.1664C4.48507 10.6211 4.49021 9.75184 4.51593 9.22718C4.54165 8.70252 4.5828 8.06469 4.61366 7.81265C4.63938 7.56061 4.71139 7.16454 4.77312 6.93821C4.83484 6.71189 4.88628 6.49071 4.89657 6.44956C4.90686 6.40841 4.91714 6.36211 4.92229 6.34668C4.92743 6.33125 4.93772 6.30039 4.94286 6.26953C4.94286 6.23866 5.00459 6.07921 5.06631 5.90946C5.13318 5.73972 5.27206 5.41567 5.37494 5.18934C5.47781 4.96302 5.62698 4.65954 5.71442 4.52065C5.80187 4.37663 5.90474 4.22746 5.94075 4.18631C5.9819 4.14516 6.03848 4.06286 6.06934 4.00628C6.1002 3.9497 6.21851 3.77481 6.33167 3.6205C6.44998 3.46104 6.61458 3.25015 6.70717 3.15756C6.79975 3.05983 6.9232 2.92095 6.99007 2.84894C7.05694 2.77693 7.23697 2.60204 7.39128 2.46316C7.55074 2.31913 7.77706 2.12367 7.90051 2.02594C8.02396 1.92821 8.28115 1.73789 8.46633 1.60415C8.6515 1.47556 8.98584 1.25952 9.20188 1.13093C9.42306 1.00234 9.62367 0.894318 9.65453 0.894318C9.68539 0.894318 9.7574 0.858312 9.81913 0.817162C9.886 0.776012 10.0969 0.683425 10.2975 0.606268C10.4981 0.534256 10.817 0.431381 11.0176 0.3748C11.2182 0.323363 11.5063 0.235919 11.6606 0.189626Z" fill="#985621"/>
<path d="M12.5093 17.1331C12.6225 17.0765 12.8642 16.9891 13.0494 16.9376C13.3014 16.8656 13.4918 16.8502 13.821 16.8708C14.0627 16.8862 14.3508 16.9222 14.4639 16.9479C14.5771 16.9788 14.8446 17.0868 15.0555 17.1897C15.3281 17.3183 15.539 17.4726 15.7756 17.7143C15.9608 17.8995 16.1614 18.1413 16.2231 18.2544C16.29 18.3676 16.3774 18.5425 16.4237 18.6402C16.47 18.738 16.542 19.0157 16.5831 19.2575C16.6346 19.5352 16.65 19.8079 16.6243 20.0033C16.6089 20.1731 16.5831 20.3942 16.5729 20.492C16.5574 20.5897 16.4751 20.8109 16.3877 20.9806C16.3002 21.1504 16.0945 21.4384 15.935 21.6184C15.7756 21.8036 15.5081 22.0402 15.0297 22.3437L15.0915 22.7398C15.1223 22.961 15.1995 23.3828 15.2612 23.6811C15.3178 23.9794 15.3795 24.3241 15.3949 24.4526C15.4104 24.5812 15.467 24.8899 15.5235 25.1471C15.5801 25.4042 15.6418 25.7232 15.6624 25.8672C15.683 26.0061 15.6984 26.2838 15.6984 26.4844C15.6984 26.7725 15.6778 26.8753 15.5853 27.0091C15.5184 27.1017 15.4052 27.2045 15.3281 27.2354C15.2355 27.2714 14.752 27.292 13.9907 27.2868C13.2191 27.2817 12.7922 27.3023 12.7922 27.3331C12.7922 27.364 12.7562 27.3692 12.7048 27.3383C12.6533 27.3177 12.5093 27.2817 12.3807 27.2663C12.2418 27.2457 12.1029 27.184 12.0309 27.1171C11.9641 27.0502 11.8766 26.9165 11.8303 26.8188C11.784 26.7056 11.7686 26.5462 11.784 26.3816C11.7943 26.2375 11.856 25.9186 11.9126 25.6614C11.9692 25.4042 12.0258 25.1162 12.0412 25.0185C12.0567 24.9207 12.0875 24.7201 12.1029 24.5812C12.1184 24.4372 12.175 24.1389 12.2264 23.9126C12.2778 23.6862 12.3498 23.2953 12.3859 23.0381C12.4167 22.7809 12.4476 22.5186 12.4527 22.4517C12.4579 22.3591 12.4116 22.3026 12.2521 22.2254C12.139 22.1637 11.8715 21.9425 11.6606 21.7265C11.4137 21.4796 11.2182 21.2275 11.1256 21.0321C11.0433 20.8623 10.9456 20.6051 10.9045 20.4662C10.8633 20.3017 10.8479 20.0085 10.8582 19.6433C10.8736 19.2369 10.9096 19.0054 10.9868 18.8203C11.0433 18.6762 11.1256 18.4808 11.1771 18.383C11.2234 18.2853 11.3777 18.059 11.5166 17.879C11.6503 17.7041 11.8098 17.5497 11.8663 17.5343C11.9229 17.5189 11.9692 17.4829 11.9692 17.4572C11.9692 17.4314 12.0464 17.3697 12.139 17.3234C12.2264 17.2771 12.3961 17.1897 12.5093 17.1331Z" fill="#985621"/>
</svg>
