<svg width="22" height="35" viewBox="0 0 22 35" fill="none" xmlns="http://www.w3.org/2000/svg">
<path d="M2.93051 0.17288C3.12944 0.0963696 3.33346 0.019859 3.38957 0.00965763C3.44568 -0.000543782 6.92436 -0.00564449 18.7427 0.00965763L19.2018 0.157578C19.4568 0.24429 19.7169 0.341203 19.7883 0.376908C19.8598 0.412613 19.9261 0.45852 19.9414 0.478923C19.9567 0.494225 20.0587 0.565635 20.1709 0.631944C20.2831 0.698253 20.4004 0.779864 20.4259 0.810468C20.4514 0.835972 20.6147 1.0247 20.7779 1.21852C20.9462 1.41745 21.1349 1.70309 21.2063 1.85611C21.2726 2.00913 21.3645 2.33048 21.4104 2.57021C21.492 2.96807 21.4971 4.19224 21.4971 17.0562C21.4971 28.0482 21.4818 31.1648 21.4359 31.3637C21.4002 31.5014 21.3594 31.6748 21.3492 31.7462C21.339 31.8177 21.2675 32.0115 21.191 32.1798C21.1145 32.3481 20.9564 32.6134 20.8391 32.7664C20.7167 32.9194 20.5177 33.1285 20.3953 33.2306C20.2729 33.3326 20.0791 33.4703 19.9669 33.5366C19.8547 33.6029 19.7526 33.6743 19.7373 33.6998C19.722 33.7253 19.6965 33.7406 19.671 33.7406C19.6506 33.7355 19.5027 33.7814 19.3446 33.8426C19.1814 33.8987 18.9314 33.9702 18.7937 33.9957C18.6509 34.0212 17.1309 34.0416 15.3252 34.0416C13.5604 34.0416 10.1378 34.0365 3.33857 34.0161L3.04272 33.8732C2.8846 33.7967 2.72138 33.7355 2.68568 33.7355C2.65507 33.7304 2.48675 33.6335 2.32353 33.5162C2.1603 33.3989 1.92057 33.1999 1.79815 33.0724C1.67574 32.9449 1.50741 32.7511 1.4258 32.6389C1.34929 32.5267 1.22687 32.3073 1.16056 32.1543C1.08915 32.0013 0.992241 31.6799 0.941234 31.4402C0.854522 31.027 0.849421 30.3538 0.854522 17.1837C0.854522 9.57858 0.869824 3.16699 0.885126 2.92726C0.905529 2.68753 0.951435 2.37638 0.992241 2.23867C1.03815 2.09585 1.15546 1.83571 1.25748 1.65208C1.35439 1.46846 1.55332 1.18282 1.70124 1.0196C1.84406 0.856375 2.09909 0.626843 2.26742 0.514627C2.43574 0.407513 2.73158 0.249391 2.93051 0.17288Z" fill="#934D22"/>
<path d="M3.63697 5.83355C3.73388 5.77744 3.91751 5.71623 4.04502 5.70093C4.17254 5.68563 7.4625 5.68053 11.3645 5.68563C17.3987 5.69073 18.4851 5.70603 18.6585 5.76724C18.7708 5.80805 18.9085 5.89986 18.9646 5.97637C19.0666 6.11409 19.0666 6.1957 19.0666 16.5858C19.0666 26.4659 19.0615 27.0576 18.9748 27.1902C18.9238 27.2769 18.8065 27.3534 18.6738 27.3891C18.5055 27.4401 16.8325 27.4554 11.237 27.4503C7.19216 27.4452 3.93281 27.4248 3.82059 27.3993C3.70838 27.3738 3.58086 27.2973 3.52475 27.2259C3.47374 27.1545 3.42274 27.0525 3.40744 26.9964C3.39723 26.9403 3.38703 26.8944 3.38703 26.8944C3.38193 26.8944 3.37683 22.2221 3.37683 16.5144C3.37683 10.8067 3.39213 6.09369 3.41764 6.03758C3.43804 5.98657 3.54005 5.89476 3.63697 5.83355Z" fill="#FEEAC2"/>
<path d="M7.52623 2.16724C7.56704 2.10093 7.66395 2.00401 7.74046 1.95301C7.86798 1.8714 8.10261 1.86119 10.9641 1.86119C12.8922 1.85609 14.1571 1.8765 14.3306 1.9071C14.4887 1.9377 14.657 2.00401 14.7131 2.06522C14.7743 2.12643 14.8253 2.26925 14.8457 2.40697C14.8661 2.59059 14.8508 2.69261 14.7692 2.84563C14.708 2.96295 14.6009 3.07516 14.5091 3.11087C14.3918 3.16187 13.6012 3.17718 11.1528 3.17718C9.39309 3.18228 7.90368 3.16187 7.83737 3.13637C7.77617 3.11087 7.66395 3.02926 7.58234 2.95785C7.46502 2.84563 7.44462 2.78442 7.44462 2.55489C7.44462 2.40187 7.48033 2.23865 7.52623 2.16724Z" fill="#CA793D"/>
<path d="M19.0589 6.62525C19.0487 6.82418 19.0436 6.67116 19.0436 6.29371C19.0436 5.91625 19.0487 5.75303 19.0589 5.93666C19.0691 6.12028 19.0691 6.42633 19.0589 6.62525Z" fill="#CA793D"/>
<path d="M3.29775 6.88029C3.28755 6.9925 3.28244 6.87519 3.28244 6.62525C3.28244 6.37532 3.28755 6.27841 3.29775 6.42122C3.30795 6.55894 3.30795 6.76807 3.29775 6.88029Z" fill="#CA793D"/>
<path d="M19.0589 10.4508C19.0538 11.0935 19.0487 10.5936 19.0487 9.32863C19.0487 8.06365 19.0538 7.53828 19.0589 8.15546C19.0691 8.77265 19.0691 9.80809 19.0589 10.4508Z" fill="#CA793D"/>
<path d="M3.29775 7.95144C3.28755 8.06365 3.28244 7.94634 3.28244 7.6964C3.28244 7.44647 3.28755 7.34955 3.29775 7.49237C3.30795 7.63009 3.30795 7.83922 3.29775 7.95144Z" fill="#CA793D"/>
<path d="M3.29775 9.96622C3.29265 10.3182 3.28244 10.0529 3.28244 9.37963C3.28244 8.70634 3.29265 8.4207 3.29775 8.74205C3.30795 9.06339 3.30795 9.61427 3.29775 9.96622Z" fill="#CA793D"/>
<path d="M3.29775 11.3944C3.28755 11.5474 3.28244 11.4352 3.28244 11.1394C3.28244 10.8435 3.28755 10.716 3.29775 10.8588C3.30795 10.9966 3.30795 11.2414 3.29775 11.3944Z" fill="#CA793D"/>
<path d="M19.0589 15.73C19.0538 16.1381 19.0436 15.781 19.0436 14.9394C19.0436 14.0978 19.0538 13.7662 19.0589 14.1998C19.0691 14.6334 19.0691 15.322 19.0589 15.73Z" fill="#CA793D"/>
<path d="M3.29775 14.0468C3.28755 14.1437 3.27734 14.0519 3.27734 13.8428C3.27734 13.6336 3.28755 13.552 3.29775 13.6642C3.30795 13.7764 3.30795 13.9499 3.29775 14.0468Z" fill="#CA793D"/>
<path d="M3.29775 15.7555C3.29265 15.9799 3.28244 15.8065 3.28244 15.373C3.28244 14.9394 3.29265 14.7558 3.29775 14.9649C3.30795 15.174 3.30795 15.5311 3.29775 15.7555Z" fill="#CA793D"/>
<path d="M3.29775 16.8012C3.28755 16.9287 3.27734 16.8369 3.27734 16.5971C3.27734 16.3574 3.28755 16.2554 3.29775 16.3676C3.30795 16.4798 3.30795 16.6736 3.29775 16.8012Z" fill="#CA793D"/>
<path d="M3.29775 21.4938C3.29265 22.264 3.28755 21.6213 3.28755 20.0656C3.28755 18.5099 3.29265 17.8774 3.29775 18.6629C3.30795 19.4484 3.30795 20.7236 3.29775 21.4938Z" fill="#CA793D"/>
<path d="M19.0589 18.2039C19.0487 18.3722 19.0436 18.2549 19.0436 17.9488C19.0436 17.6428 19.0487 17.5 19.0589 17.6428C19.0691 17.7805 19.0691 18.0355 19.0589 18.2039Z" fill="#CA793D"/>
<path d="M19.0589 21.0858C19.0538 21.5499 19.0436 21.1572 19.0436 20.2186C19.0436 19.2801 19.0538 18.8976 19.0589 19.377C19.0691 19.8565 19.0691 20.6216 19.0589 21.0858Z" fill="#CA793D"/>
<path d="M19.0589 23.8911C19.0538 24.2431 19.0436 23.9422 19.0436 23.2281C19.0436 22.514 19.0538 22.2283 19.0589 22.5905C19.0691 22.9526 19.0691 23.5392 19.0589 23.8911Z" fill="#CA793D"/>
<path d="M3.29775 24.8093C3.29265 25.049 3.28244 24.8756 3.28244 24.4267C3.28244 23.9779 3.29265 23.784 3.29775 23.9932C3.30795 24.2023 3.30795 24.5695 3.29775 24.8093Z" fill="#CA793D"/>
<path d="M19.0589 25.8039C19.0538 26.0028 19.0436 25.8294 19.0436 25.4214C19.0436 25.0133 19.0538 24.8552 19.0589 25.0643C19.0691 25.2734 19.0691 25.605 19.0589 25.8039Z" fill="#CA793D"/>
<path d="M8.87282 29.0939C8.87282 29.0684 8.94933 29.0378 9.04114 29.0327C9.12785 29.0225 10.1327 29.0225 11.2701 29.0327L11.2715 29.0327C13.3308 29.0429 13.336 29.0429 13.54 29.1653C13.6522 29.2316 13.8205 29.3846 13.9072 29.507C13.999 29.6294 14.0959 29.8386 14.1265 29.9763C14.152 30.1089 14.1622 30.2772 14.1469 30.3588C14.1265 30.4353 14.0755 30.568 14.0296 30.6496C13.9888 30.7312 13.8817 30.8791 13.795 30.9709C13.7134 31.0627 13.54 31.1699 13.4124 31.2107C13.2186 31.277 12.8361 31.2872 8.84731 31.2617L8.59228 31.0984C8.43416 31.0015 8.29134 30.8536 8.21483 30.7159C8.14342 30.5935 8.08731 30.3945 8.08221 30.267C8.07711 30.1395 8.10771 29.9253 8.15362 29.7876C8.20973 29.6141 8.30664 29.4764 8.45966 29.3387C8.58208 29.2316 8.7249 29.1449 8.7759 29.1449C8.83201 29.1449 8.87282 29.1194 8.87282 29.0939Z" fill="#CA793D"/>
</svg>
