<svg width="96" height="116" viewBox="0 0 96 116" fill="none" xmlns="http://www.w3.org/2000/svg">
<path d="M9.68852 12.6668C12.8243 10.9046 18.9456 7.61378 23.3142 5.34802C27.6458 3.07141 31.7052 1.03182 32.2801 0.786863C33.1662 0.437416 33.6629 0.448254 34.8348 0.865573C35.6653 1.15884 38.6845 2.39965 41.5591 3.6559C44.4573 4.89933 47.0391 6.0664 47.323 6.253C47.5821 6.45189 47.9451 6.90166 48.1358 7.25957C48.3153 7.65405 48.3908 8.71681 48.2934 9.62644C48.2086 10.56 46.8265 15.6156 45.2078 20.8586C43.6162 26.0783 42.2901 30.3637 42.2848 30.3811C42.3086 30.3684 43.0055 30.181 43.8343 29.954C44.6996 29.7382 46.6858 29.3844 48.2778 29.2103C49.8572 29.0123 52.5651 28.9186 54.2971 29.007C56.0291 29.0954 58.6614 29.3779 60.169 29.6777C61.6639 29.9537 64.2337 30.637 65.8811 31.1993C67.5285 31.7616 69.9487 32.7397 71.2351 33.3718C72.5341 34.0277 74.6214 35.2441 75.8647 36.0829C77.1319 36.909 78.9959 38.3372 80.0229 39.23C81.0498 40.1228 82.5628 41.5836 83.3845 42.4937C84.2062 43.4038 85.6683 45.2285 86.6346 46.5824C87.6009 47.9365 89.1671 50.4727 90.1077 52.2387C91.2645 54.4102 92.1649 56.5044 92.9112 58.7108C93.5258 60.4971 94.2538 63.4171 94.5773 65.1746C94.877 66.9449 95.1654 69.6711 95.1933 71.2187C95.2322 72.7297 95.1387 75.2001 95.0186 76.6426C94.8874 78.1217 94.4475 80.7458 94.0442 82.4617C93.6171 84.1902 92.6644 87.1176 91.8539 88.9892C91.0673 90.8479 89.6153 93.6433 88.6156 95.2174C87.616 96.7914 85.9571 99.0841 84.9243 100.308C83.8787 101.509 82.0646 103.394 80.8584 104.466C79.6524 105.537 77.8279 106.999 76.7825 107.74C75.7245 108.457 73.6634 109.708 72.1838 110.496C70.7281 111.271 68.2766 112.363 66.7305 112.911C65.2081 113.446 62.4561 114.146 60.6142 114.483C58.7595 114.797 55.8757 115.077 54.2073 115.108C52.5389 115.139 50.2994 115.075 49.2449 114.994C48.1778 114.888 46.09 114.592 44.5953 114.316C43.1131 114.064 40.6035 113.378 39.0165 112.814C37.4534 112.238 35.3147 111.385 34.2986 110.916C33.3065 110.433 31.4304 109.442 30.1648 108.676C28.8991 107.911 27.0509 106.627 26.0382 105.819C25.0254 105.01 23.466 103.635 22.5727 102.763C21.6793 101.891 20.1961 100.2 19.2584 99.0151C18.0457 97.4861 16.8842 95.5923 15.2063 92.4424C13.8224 89.9019 12.4908 87.0574 11.9968 85.7274C11.5649 84.4564 10.9445 82.4277 10.6477 81.2379C10.3509 80.0481 9.96797 77.893 9.79852 76.4821C9.65293 75.0586 9.51638 72.5581 9.54744 70.9486C9.57849 69.3391 9.79151 66.8057 9.99584 65.3489C10.224 63.8794 10.6628 61.6544 11.0054 60.3997C11.3241 59.1577 12.055 57.0217 12.6012 55.6892C13.1475 54.3566 14.1219 52.2751 14.7571 51.1097C15.3795 49.9205 16.4473 48.188 17.1365 47.2388C17.8018 46.3023 18.95 44.8329 19.7027 44.003C20.4314 43.1861 21.4906 42.0702 22.046 41.5599C22.6006 41.0502 23.0478 40.5674 23.0585 40.4695C23.0681 40.3725 18.7412 39.0926 13.4537 37.6202C8.15334 36.124 3.1902 34.5703 2.41743 34.1547C1.63207 33.7154 0.891395 33.1301 0.738775 32.8437C0.573527 32.5335 0.43837 31.9927 0.45288 31.6174C0.43085 31.2307 0.840928 28.8371 1.36867 26.3197C1.88369 23.7786 2.48276 20.7635 2.73148 19.62C2.96904 18.5132 3.37086 17.1963 3.57628 16.7192C3.96636 15.8988 4.38329 15.6459 9.68852 12.6668ZM38.936 43.9254C36.8822 44.9581 34.9016 46.0135 34.5341 46.3011C34.1537 46.5651 33.1692 47.3036 32.3389 47.9296C31.5083 48.5559 30.1962 49.7751 29.4673 50.5922C28.7258 51.3855 27.5074 52.8927 26.7959 53.915C26.0844 54.9373 24.8343 57.1353 24.0556 58.8368C23.2644 60.5142 22.3568 62.8355 22.0476 63.9804C21.7273 65.1618 21.3287 67.0589 21.1897 68.2358C21.0269 69.4254 20.9476 71.5201 21.02 72.9213C21.0925 74.3226 21.3666 76.505 21.6538 77.7919C21.9171 79.0915 22.463 81.037 22.8664 82.1394C23.2571 83.2179 24.0026 84.9039 24.5111 85.8585C25.0068 86.7892 26.0288 88.42 26.7456 89.4781C27.4862 90.5234 28.7862 92.1594 29.6461 93.1412C30.5299 94.1103 32.1405 95.5809 33.2629 96.4228C34.3615 97.2774 36.3778 98.532 37.7149 99.2595C39.0522 99.987 41.3993 100.942 42.9114 101.423C44.4237 101.904 46.7964 102.448 48.1561 102.642C49.5286 102.861 51.6118 102.977 52.7728 102.972C53.9211 102.942 55.6946 102.763 56.7063 102.591C57.7306 102.444 59.5108 102.047 60.6879 101.726C61.8778 101.43 63.7833 100.752 64.9557 100.25C66.1632 99.6985 68.1185 98.5958 69.533 97.6279C70.9124 96.7093 72.7723 95.1975 73.7287 94.2899C74.6723 93.3583 76.2335 91.516 77.2155 90.1964C78.1976 88.8768 79.5304 86.6044 80.1833 85.1844C80.8361 83.7644 81.7282 81.2979 82.1711 79.7141C82.614 78.1305 83.0395 75.8825 83.1674 74.7421C83.2825 73.5779 83.3233 71.4112 83.2732 69.9368C83.2231 68.4624 82.959 66.1832 82.6718 64.8963C82.4085 63.5968 81.6456 61.2453 81.0119 59.6529C80.1065 57.3783 79.509 56.2565 78.2154 54.403C77.3112 53.108 75.9477 51.3535 75.164 50.5149C74.4042 49.6636 72.8067 48.2162 71.6589 47.3265C70.5348 46.4241 68.5771 45.1078 67.3258 44.4265C66.0744 43.7451 63.8116 42.7755 62.2502 42.2594C60.7253 41.7545 58.4246 41.1725 57.1253 40.9761C55.8132 40.7559 53.7277 40.5797 52.4696 40.5759C51.2117 40.5721 49.4608 40.6778 48.605 40.7966C47.7493 40.9154 46.052 41.2377 44.8621 41.5345C43.2508 41.9026 41.6946 42.5479 38.936 43.9254Z" fill="#EB810E"/>
</svg>
