<svg width="28" height="33" viewBox="0 0 28 33" fill="none" xmlns="http://www.w3.org/2000/svg">
<path fill-rule="evenodd" clip-rule="evenodd" d="M19.3068 0.0131016L19.3118 2.68482C19.3118 4.14979 19.3267 5.49558 19.3415 5.67436C19.3614 5.85313 19.3962 6.05674 19.426 6.1362C19.4558 6.21069 19.4707 6.27028 19.4558 6.27028C19.4409 6.27028 19.5253 6.45402 19.6345 6.68246C19.7885 6.98042 19.9375 7.17906 20.1957 7.43729C20.3894 7.63097 20.6724 7.85444 20.8214 7.93389C20.9704 8.01831 21.1939 8.11267 21.318 8.14743C21.467 8.19212 21.8246 8.20702 22.4006 8.19709C22.8674 8.18716 23.2548 8.19709 23.2548 8.21695C23.2548 8.24178 23.2895 8.24675 23.3293 8.23185C23.369 8.21695 23.7464 8.20702 24.1635 8.21199C24.5757 8.21199 24.9531 8.21199 24.9929 8.21199C25.0326 8.21199 25.5044 8.20702 26.0457 8.19709C26.6764 8.18716 27.0091 8.16233 26.9892 8.13253C26.9743 8.10274 26.9942 8.1077 27.0339 8.14246C27.0736 8.17226 27.1928 8.20702 27.3021 8.21695C27.4709 8.23185 27.5007 8.25172 27.5156 8.356C27.5255 8.42553 27.5404 12.7907 27.5454 18.0646C27.5553 23.3385 27.5653 27.9867 27.5702 28.3939C27.5702 28.806 27.5504 29.3622 27.5206 29.6354C27.4759 30.0475 27.4362 30.1916 27.2872 30.4796C27.173 30.6981 26.9743 30.9563 26.7558 31.1798C26.5671 31.3735 26.284 31.6019 26.1351 31.6863C25.9861 31.7708 25.852 31.8403 25.8371 31.8353C25.8222 31.8303 25.7626 31.8552 25.698 31.885C25.6385 31.9197 25.5292 31.9545 25.4497 31.9644C25.3753 31.9793 25.1816 32.0091 25.0177 32.0389C24.824 32.0737 23.5925 32.0935 21.5167 32.0935C19.7537 32.0985 17.1962 32.0985 15.8306 32.0985C14.4649 32.0985 10.9986 32.0985 8.13326 32.0985C5.2629 32.0985 2.81963 32.0836 2.69548 32.0687C2.57133 32.0489 2.35779 32.0141 2.2237 31.9893C2.08466 31.9644 1.85622 31.8899 1.7122 31.8204C1.57316 31.7509 1.43411 31.6963 1.40431 31.6963C1.37452 31.6963 1.16594 31.5076 0.932541 31.2742C0.589886 30.9315 0.475668 30.7726 0.316755 30.4399C0.212469 30.2164 0.123081 29.9979 0.123081 29.9582C0.123081 29.9184 0.0982506 29.6354 0.0684545 29.3374C0.0436245 29.0394 0.0187944 27.058 0.0187944 24.9425C0.0187944 22.827 0.00886239 16.9273 0.00389638 11.8322C-0.00603564 6.73708 0.00389638 2.49114 0.0237604 2.39679C0.0436245 2.30243 0.0783866 2.16835 0.103217 2.09883C0.128047 2.0293 0.152877 1.95978 0.157843 1.93991C0.157843 1.91508 0.237299 1.75121 0.321721 1.57243C0.411109 1.39365 0.58492 1.13045 0.704104 0.991406C0.823289 0.847392 0.922609 0.743106 0.927575 0.753038C0.932541 0.76297 1.012 0.698411 1.10635 0.609023C1.20071 0.519635 1.37948 0.395485 1.50363 0.335892C1.62778 0.271334 1.86119 0.181946 2.02506 0.132286C2.30316 0.0478637 2.74017 0.0379317 8.97748 0.0131016C12.6374 -0.00179641 16.4563 -0.00676242 19.3068 0.0131016ZM23.7663 3.04237C23.7911 3.04237 23.945 3.18638 24.1139 3.36516C24.2827 3.54394 24.4118 3.68795 24.397 3.68795C24.3821 3.68795 24.2281 3.54394 24.0493 3.36516C23.8706 3.18638 23.7464 3.04237 23.7663 3.04237Z" fill="#D67543"/>
<path d="M19.3117 2.89342C19.3068 1.43341 19.3167 0.181974 19.3316 0.117416C19.3564 -0.00176809 19.3564 -0.00176809 19.9027 0.028028C20.2007 0.042926 20.5284 0.0826541 20.6228 0.117416C20.7171 0.152178 20.8959 0.246533 21.02 0.330955C21.1442 0.415377 21.7997 1.05599 22.485 1.75123C23.1654 2.44648 24.2182 3.51913 24.824 4.13492C25.4249 4.75071 26.2393 5.57506 26.6267 5.97235C27.019 6.36963 27.3815 6.77684 27.4312 6.88113C27.5057 7.02514 27.5305 7.19398 27.5504 8.22692L27.3269 8.21202C27.2027 8.20705 27.0736 8.17229 27.0339 8.14249C26.9942 8.10773 26.9743 8.10277 26.9892 8.13256C27.0091 8.16236 26.6763 8.18719 26.0456 8.19712C25.5044 8.20705 25.0326 8.21202 24.9929 8.21202H24.1635C23.7464 8.20705 23.369 8.21698 23.3292 8.23188C23.2895 8.24678 23.2547 8.24181 23.2547 8.22195C23.2547 8.19712 22.8674 8.18719 22.4006 8.19712C21.8245 8.20705 21.467 8.19215 21.318 8.14746C21.1939 8.1127 20.9704 8.01834 20.8214 7.93392C20.6724 7.85446 20.3894 7.63099 20.1957 7.43732C19.9375 7.17909 19.7885 6.98045 19.6345 6.68248C19.5253 6.45405 19.4409 6.27031 19.4557 6.27031C19.4706 6.27031 19.4557 6.21071 19.426 6.13622C19.3962 6.05677 19.3614 5.89786 19.3465 5.7737C19.3316 5.64955 19.3167 4.35343 19.3117 2.89342Z" fill="#9F512A"/>
<path d="M18.8847 12.1501C19.4706 11.5442 20.0417 11.0029 20.151 10.9433C20.2702 10.8837 20.439 10.839 20.5731 10.839C20.6973 10.839 20.881 10.8688 20.9803 10.9135C21.0846 10.9533 21.3279 11.137 21.5216 11.3257C21.7153 11.5094 21.9139 11.7478 21.9686 11.8571C22.0182 11.9663 22.0629 12.1352 22.0629 12.2295C22.0629 12.3239 22.0182 12.4927 21.9636 12.602C21.904 12.7212 21.1889 13.4859 20.1411 14.5536C19.1876 15.517 17.6978 17.0317 16.8238 17.9255C15.9497 18.8194 14.5394 20.2546 13.6902 21.1187C12.841 21.9778 12.0067 22.8369 11.828 23.0256C11.6541 23.2094 11.4555 23.3882 11.386 23.413C11.3165 23.4378 11.1377 23.4676 10.9887 23.4775C10.7752 23.4875 10.6709 23.4626 10.5169 23.3733C10.4077 23.3137 9.56842 22.5141 8.64971 21.6054C7.73099 20.6966 6.54908 19.5296 6.02268 19.0081C5.21819 18.2136 5.04935 18.0149 4.9252 17.7567C4.83581 17.5581 4.78118 17.3644 4.78118 17.2204C4.78118 17.0912 4.82588 16.9075 4.89043 16.7883C4.95003 16.6691 5.09901 16.4755 5.22316 16.3612C5.34731 16.2421 5.54098 16.103 5.65023 16.0484C5.77438 15.9888 5.95813 15.954 6.14683 15.954C6.36534 15.954 6.48949 15.9838 6.61861 16.0583C6.71296 16.1179 7.69623 17.0664 8.80365 18.1738C9.91107 19.2763 10.8447 20.1751 10.8794 20.1751C10.9092 20.1751 11.1029 20.0113 11.3016 19.8176C11.5002 19.6189 13.0446 18.0596 14.738 16.3513C16.4314 14.643 18.2987 12.7559 18.8847 12.1501Z" fill="#9F512A"/>
</svg>
